<svg width="204" height="50" viewBox="0 0 204 50" xmlns="http://www.w3.org/2000/svg" xmlns:xlink="http://www.w3.org/1999/xlink"><title>logo wordmark copy</title><defs><path id="a" d="M17.533.024H.006v18.081h17.527V.024z"/><path id="c" d="M2.934 2.57V.04H.194v2.53h2.74z"/><path id="e" d="M0 25.71H31.31V.09H0z"/></defs><g fill="none" fill-rule="evenodd"><path d="M28.903 9.916l-8.937 4.603v14.595c0 .588 0 1.273-.2 1.86a8.188 8.188 0 0 1-.496 1.666c-.099.098-.099.294-.198.392-.298 0-2.483-.686-3.476-1.371-.397-.294-.795-.588-1.192-.98-.397-.392-.695-.784-.993-1.175a6.224 6.224 0 0 1-.794-1.372c-.2-.49-.398-.98-.497-1.567-.1-.49-.1-1.077-.1-1.567V10.993l-1.986-1.175-9.93 5.779v13.419c0 6.17 5.064 11.166 11.222 11.166 2.085 0 3.972-.49 5.66-1.469l8.342-4.702c3.278-1.665 5.562-5.093 5.562-8.913V11.09l-1.987-1.175zM17.88 35.48c-.894.881-1.589 1.37-2.582 1.86-.596.197-1.291.49-1.887.686-.596.098-1.192.196-1.788.196-.595 0-1.589-.098-2.184-.196a8.477 8.477 0 0 1-1.689-.49c-.496-.195-1.092-.49-1.589-.881-1.29-.882-1.887-1.665-2.482-2.449-.298-.49-.596-.98-.894-1.567-.199-.588-.397-1.077-.497-1.665-.198-.686-.198-1.371-.198-1.96V16.773l7.944-4.603V25c0 4.897 3.675 8.913 8.343 9.893-.2.196-.298.392-.497.588zm10.924-8.816c-.1.49-.298.98-.496 1.47a7.366 7.366 0 0 1-.994 1.665c-.595.685-1.191 1.175-2.68 2.056-1.292.686-2.384.882-3.08 1.078.497-1.175.497-2.449.497-3.82l-.1-13.42 6.952-3.623v13.027c0 .49 0 1.077-.099 1.567z" fill="#02B3E4"/><path d="M73 1v48" stroke="#7D97AD" stroke-linecap="square"/><path d="M159.803 35.708c.266 0 .491.099.668.293a.898.898 0 0 1 .23.708 1.069 1.069 0 0 1-.176.5 1.065 1.065 0 0 1-.894.483.94.94 0 0 1-.485-.126.825.825 0 0 1-.326-.357.942.942 0 0 1-.089-.5c.024-.275.142-.514.351-.708.21-.194.452-.293.72-.293m.036-.39c-.411 0-.77.148-1.064.44a1.479 1.479 0 0 0-.45.944 1.25 1.25 0 0 0 .306.96c.236.272.561.41.969.41.406 0 .755-.138 1.038-.41.282-.272.441-.596.473-.96a1.254 1.254 0 0 0-.287-.946c-.244-.29-.576-.439-.985-.439M188.73 35.735c.267 0 .492.098.668.293a.899.899 0 0 1 .23.708 1.069 1.069 0 0 1-.175.5 1.065 1.065 0 0 1-.894.483.942.942 0 0 1-.485-.127.825.825 0 0 1-.326-.357.94.94 0 0 1-.09-.499c.025-.275.143-.514.352-.708.21-.195.452-.293.72-.293m.035-.39c-.41 0-.769.148-1.064.44-.267.265-.419.583-.45.944a1.25 1.25 0 0 0 .307.96c.235.272.561.41.969.41.406 0 .755-.138 1.037-.41.283-.272.442-.596.474-.96a1.254 1.254 0 0 0-.288-.946c-.244-.291-.575-.439-.985-.439" fill="#656464"/><g transform="translate(153.654 13.002)"><mask id="b" fill="#fff"><use xlink:href="#a"/></mask><path d="M10.686 14.802c-.339.15-1.49.489-1.758.519-.425.045-.872.06-.872.06H3.075s-.094.008-.148-.064c-.053-.07-.04-.162-.04-.162l.518-6.09.538-6.09s.003-.092.068-.163c.066-.07.16-.063.16-.063h4.98s.445.014.861.06c.264.029 1.356.369 1.669.519 2.183 1.066 3.389 3.163 3.174 5.736-.232 2.575-1.8 4.671-4.169 5.738m5.237-11.607C14.782 1.675 13.12.675 11.083.2a7.387 7.387 0 0 0-1.02-.146C9.681.024 9.268.024 9.268.024L4.56.039H1.866v.003a.383.383 0 0 0-.355.343l-.747 8.68c-.19 2.193-.438 5.022-.757 8.68a.31.31 0 0 0 .295.343v.002h2.694l4.704.015s.414 0 .801-.03c.44-.032.893-.11 1.045-.147 2.118-.473 3.955-1.473 5.36-2.994a10.002 10.002 0 0 0 2.592-5.87c.184-2.181-.373-4.265-1.575-5.87" fill="#656464" mask="url(#b)"/></g><path d="M175.631 17.196h-1.697c-.296 0-.555.224-.578.496l-1.051 12.126c-.002.03 0 .062.002.094.01.651.568 1.16 1.273 1.16.706 0 1.352-.509 1.475-1.16a.617.617 0 0 0 .018-.094l1.051-12.126c.024-.272-.198-.496-.493-.496M174.919 15.621c.754 0 1.414-.566 1.475-1.266.06-.699-.5-1.264-1.256-1.264-.754 0-1.414.565-1.475 1.264-.06.7.502 1.266 1.256 1.266M191.3 27.797c-.338.15-1.487.488-1.756.518-.424.046-.87.06-.87.06H183.7s-.095.008-.149-.063c-.052-.071-.04-.162-.04-.162l.517-6.083.538-6.083s.003-.09.068-.162c.066-.071.159-.063.159-.063h4.975s.443.014.86.06c.263.03 1.354.368 1.666.518 2.18 1.065 3.384 3.16 3.17 5.73-.231 2.57-1.798 4.665-4.163 5.73m5.23-11.592c-1.14-1.518-2.8-2.517-4.835-2.99a7.442 7.442 0 0 0-1.018-.147c-.381-.03-.794-.03-.794-.03l-4.701.015h-2.691v.002a.382.382 0 0 0-.354.343l-.747 8.67c-.19 2.19-.437 5.015-.756 8.667a.31.31 0 0 0 .295.344v.002h2.69l4.699.015s.413 0 .8-.03c.44-.032.892-.111 1.043-.147 2.115-.472 3.95-1.471 5.353-2.99a9.99 9.99 0 0 0 2.59-5.862c.183-2.18-.374-4.26-1.574-5.862M202.643 17.148h-1.698c-.296 0-.554.224-.578.496l-1.05 12.126c-.003.03-.001.062.001.095.01.65.568 1.159 1.273 1.159.706 0 1.352-.509 1.475-1.16a.617.617 0 0 0 .019-.094l1.05-12.126c.024-.272-.197-.496-.492-.496" fill="#656464"/><g transform="translate(200.476 13.002)"><mask id="d" fill="#fff"><use xlink:href="#c"/></mask><path d="M1.454 2.57c.755 0 1.414-.566 1.475-1.265C2.99.606 2.43.04 1.673.04.92.04.26.606.198 1.305c-.06.7.502 1.266 1.256 1.266" fill="#656464" mask="url(#d)"/></g><path d="M157.734 38.01a.07.07 0 0 1-.016.041.09.09 0 0 1-.044.028.542.542 0 0 1-.08.017.863.863 0 0 1-.123.008.849.849 0 0 1-.12-.008.428.428 0 0 1-.077-.017.07.07 0 0 1-.038-.028.066.066 0 0 1-.01-.04l.283-3.26h-.006l-1.596 3.257a.107.107 0 0 1-.028.035.14.14 0 0 1-.05.024.318.318 0 0 1-.075.014.99.99 0 0 1-.207 0 .36.36 0 0 1-.073-.016.137.137 0 0 1-.044-.025.07.07 0 0 1-.019-.032l-1.035-3.258h-.002l-.283 3.26a.074.074 0 0 1-.016.041.089.089 0 0 1-.045.028.528.528 0 0 1-.08.017.893.893 0 0 1-.125.008.84.84 0 0 1-.121-.008.424.424 0 0 1-.077-.017c-.018-.007-.03-.016-.036-.028a.065.065 0 0 1-.007-.04l.298-3.442c.007-.082.034-.139.08-.174a.249.249 0 0 1 .152-.052h.311c.064 0 .12.006.167.017.047.012.087.03.121.055s.06.057.081.096c.021.039.038.083.052.135l.889 2.694h.015l1.337-2.685a.903.903 0 0 1 .085-.147.44.44 0 0 1 .093-.097.343.343 0 0 1 .109-.052.524.524 0 0 1 .133-.016h.326c.03 0 .059.004.085.013a.153.153 0 0 1 .065.04c.017.019.031.042.04.07.01.028.014.062.01.103l-.299 3.442zM164.078 35.87c.187-.153.407-.23.65-.23a.96.96 0 0 1 .417.092c.13.061.23.143.303.242a.9.9 0 0 1 .144.36h-1.832c.083-.204.19-.359.318-.463m1.66 1.048c-.067 0-.172.086-.172.086l-.019.026c-.112.16-.215.278-.306.35a1.155 1.155 0 0 1-.699.237.819.819 0 0 1-.638-.27c-.156-.174-.23-.397-.218-.665h2.319l.002-.034c.028-.352-.045-.65-.215-.886-.24-.333-.588-.503-1.036-.503a1.4 1.4 0 0 0-1.091.492 1.497 1.497 0 0 0-.385.879c-.03.347.065.664.283.94.219.275.547.416.976.416.193 0 .37-.03.529-.087.159-.058.306-.143.439-.254a1.75 1.75 0 0 0 .362-.437l.013-.02a.206.206 0 0 0 .026-.081.17.17 0 0 0-.17-.189M175.413 37.214a1.047 1.047 0 0 1-.397.355c-.33.175-.706.177-.998 0a.871.871 0 0 1-.335-.371.943.943 0 0 1-.093-.5c.015-.174.075-.342.178-.498.104-.157.237-.28.397-.366.158-.087.33-.13.51-.13.28 0 .51.096.685.287.174.191.25.432.226.717a1.078 1.078 0 0 1-.173.506zm.64-1.63a.176.176 0 0 0-.178-.163.219.219 0 0 0-.205.163h-.009l-.017.204a1.162 1.162 0 0 0-.378-.333 1.222 1.222 0 0 0-.584-.138c-.378 0-.718.135-1.01.403a1.45 1.45 0 0 0-.49.968 1.244 1.244 0 0 0 1.251 1.385c.211 0 .413-.044.6-.13.16-.075.312-.182.451-.32l-.015.183h.001c-.01.11.072.201.181.201.11 0 .206-.09.217-.2l.192-2.223h-.008zM183.177 37.257a1.047 1.047 0 0 1-.397.355c-.33.174-.706.177-1 0a.874.874 0 0 1-.333-.371.943.943 0 0 1-.094-.5c.016-.174.076-.342.18-.498.103-.157.236-.28.395-.366.16-.087.332-.13.511-.13.28 0 .51.096.685.287.174.191.25.432.225.717a1.078 1.078 0 0 1-.172.506zm.647-1.63c-.01-.092-.07-.162-.185-.163-.097 0-.181.042-.214.163l-.018.204a1.162 1.162 0 0 0-.377-.333 1.223 1.223 0 0 0-.585-.138c-.377 0-.717.135-1.01.403a1.45 1.45 0 0 0-.489.968c-.033.383.073.713.317.981.243.268.557.404.934.404.211 0 .413-.044.6-.13.16-.075.311-.182.451-.32l-.016.183h.001c-.01.11.072.201.182.201s.206-.09.216-.2l.193-2.223zM194.714 35.551l.002-.007c-.097-.088-.218-.095-.314-.108-.162-.022-.47.066-.672.328l.022-.262h-.005a.183.183 0 0 0-.184-.184.227.227 0 0 0-.216.184h-.005l-.21 2.437h.003a.183.183 0 0 0 .184.186.228.228 0 0 0 .218-.186h.005l.061-.712c.038-.438.084-.732.137-.873a.914.914 0 0 1 .261-.403.503.503 0 0 1 .312-.127c.043 0 .097.014.16.041a.17.17 0 0 0 .088.027c.106 0 .2-.087.209-.195a.174.174 0 0 0-.056-.146M163.121 35.383l-.026-.024c-.006-.004-.012-.005-.019-.009a.25.25 0 0 0-.029-.013.587.587 0 0 0-.257-.07.73.73 0 0 0-.383.115c-.098.06-.197.146-.293.256l.026-.305h-.003a.184.184 0 0 0-.185-.192.227.227 0 0 0-.219.192h-.003l-.22 2.53v.011s-.018.186.187.203c.184.014.224-.208.224-.208l.07-.81c.038-.438.084-.733.137-.874a.92.92 0 0 1 .261-.403.503.503 0 0 1 .312-.126c.044 0 .098.014.16.041l.026.012.002-.003c.02.008.042.013.065.013a.217.217 0 0 0 .212-.197.181.181 0 0 0-.045-.14M178.758 36.743c.03-.35.016-.613-.043-.782a.802.802 0 0 0-.311-.407.912.912 0 0 0-.524-.15c-.196 0-.384.044-.56.134-.148.075-.29.185-.423.327l.017-.195h-.007a.18.18 0 0 0-.18-.2c-.11 0-.207.089-.217.2l-.193 2.223h.005c.003.1.078.18.18.18.104 0 .193-.08.213-.18h.006l.067-.771c.029-.334.065-.565.106-.687.065-.185.182-.343.347-.47a.875.875 0 0 1 .54-.19.61.61 0 0 1 .4.121c.096.08.156.202.18.362.015.096.01.292-.014.582l-.09 1.03h.007l-.002.006c-.01.109.07.197.178.197a.217.217 0 0 0 .211-.197v-.006h.01l.097-1.127zM192.584 35.408a.23.23 0 0 0-.224.208v.01l-.09 1.057c-.028.313-.062.52-.103.615a.736.736 0 0 1-.285.332.857.857 0 0 1-.468.127.767.767 0 0 1-.453-.13.568.568 0 0 1-.23-.353c-.022-.105-.02-.304.004-.591l.092-1.064v-.003a.183.183 0 0 0-.183-.203.226.226 0 0 0-.22.203l-.096 1.104c-.031.367-.012.647.057.83.07.187.19.334.357.439.165.103.38.156.64.156.259 0 .482-.053.664-.156.183-.105.327-.25.43-.434.101-.182.168-.455.199-.81l.097-1.129a.187.187 0 0 0-.188-.208M198.585 35.961a1.016 1.016 0 0 1 1.079-.14c.13.061.233.144.306.244a.914.914 0 0 1 .145.364h-1.85c.083-.205.19-.363.32-.468m1.657 1.082a.21.21 0 0 0-.166.09h-.006a1.711 1.711 0 0 1-.309.355c-.09.072-.2.13-.324.174a1.163 1.163 0 0 1-.382.066.828.828 0 0 1-.645-.275c-.157-.175-.231-.4-.22-.67h2.343l.002-.036c.028-.355-.045-.656-.217-.895-.242-.337-.594-.508-1.047-.508-.44 0-.812.168-1.103.497-.23.259-.36.557-.389.888-.03.351.066.67.286.95.221.279.553.42.987.42.194 0 .374-.029.534-.088.16-.058.31-.144.443-.256.134-.112.258-.26.367-.442a.205.205 0 0 0 .021-.076.175.175 0 0 0-.175-.194M197.423 36.679c.03-.351.016-.614-.043-.782a.801.801 0 0 0-.311-.407.91.91 0 0 0-.524-.151c-.197 0-.384.045-.56.135-.148.076-.29.185-.423.327l.016-.192c0-.003.003-.005.003-.008l-.002-.008.003-.023h-.005a.181.181 0 0 0-.182-.175.225.225 0 0 0-.214.175h-.003l-.002.018c0 .005-.003.009-.003.013l.001.012-.197 2.288a.182.182 0 0 0 .183.203c.112 0 .21-.09.22-.203l.073-.844c.029-.333.065-.564.106-.685.065-.186.182-.345.347-.472a.874.874 0 0 1 .54-.19c.168 0 .303.042.4.122.096.08.156.201.18.363.015.095.01.29-.014.58l-.097 1.125a.183.183 0 0 0 .184.203c.111 0 .209-.09.219-.203l.105-1.221zM203.143 35.12a.177.177 0 0 0-.177-.197.216.216 0 0 0-.191.122h-.001l-1.014 1.918-.708-1.918-.003.001a.175.175 0 0 0-.16-.105.22.22 0 0 0-.214.198c-.001.015.003.028.005.042l-.009.003.83 2.257-.428.78a.212.212 0 0 0-.037.098.181.181 0 0 0 .182.201.22.22 0 0 0 .204-.154h.001l1.716-3.195-.01-.004c.006-.015.013-.03.014-.047M172.777 35.815a.805.805 0 0 0-.312-.406.91.91 0 0 0-.523-.151c-.195 0-.382.045-.558.134a1.583 1.583 0 0 0-.425.328l.09-1.186c.008-.093-.08-.19-.176-.19a.22.22 0 0 0-.207.163l-.296 3.34s-.02.226.18.226c.217 0 .224-.226.224-.226l.076-.87c.029-.335.064-.566.106-.687.065-.185.18-.344.346-.47a.873.873 0 0 1 .54-.19c.17 0 .303.04.399.12.095.08.157.203.183.363.015.096.01.291-.016.581l-.104 1.167c.019.177.106.212.19.212.176 0 .215-.203.215-.203l.11-1.272c.031-.352.017-.615-.042-.783M169.917 35.324h-.394l.07-.775a.185.185 0 0 0-.185-.206.228.228 0 0 0-.222.206l-.066.775h-.457v.003h-.001a.192.192 0 0 0-.188.173.156.156 0 0 0 .157.174h.001v.003h.458l-.19 2.18s-.001.215.177.215c.193 0 .225-.19.225-.19l.19-2.205h.394s.152-.015.166-.176c.013-.157-.135-.177-.135-.177M186.652 34.495a.26.26 0 0 0-.18.072.259.259 0 0 0-.087.172.219.219 0 0 0 .224.242.26.26 0 0 0 .18-.072.257.257 0 0 0 .087-.17.215.215 0 0 0-.057-.172.218.218 0 0 0-.167-.072M186.783 35.449a.191.191 0 0 0-.196-.203c-.06 0-.114.02-.16.062a.223.223 0 0 0-.072.14l-.005.011-.188 2.159c-.012.141-.029.249-.049.32a.518.518 0 0 1-.084.18c-.09.113-.204.124-.243.129 0 0-.286.003-.295.018-.001.004-.078.053-.087.157a.163.163 0 0 0 .118.178h.302s.164 0 .285-.055a.697.697 0 0 0 .246-.175.862.862 0 0 0 .159-.29c.039-.115.067-.27.083-.46l.189-2.16c0-.004-.002-.007-.003-.011" fill="#656464"/><path d="M129.75 33.076c5.356-.17 9.604-4.471 9.666-9.813v-4.594h5.893v5.079c-.115 8.26-7.23 14.776-15.558 14.964v-.002c-8.467-.052-15.634-6.615-15.75-14.963v-9.129c-.014-.934.589-1.54 1.497-1.526h23.914v5.576l-18.751.004c-.482 0-.77.296-.77.778v3.72c.063 5.413 4.383 9.85 9.86 9.906z" fill="#F98919"/><g transform="translate(114 13.002)"><mask id="f" fill="#fff"><use xlink:href="#e"/></mask><path d="M25.412.09H1.468C.576.09-.013.693 0 1.616v9.13c.117 8.346 7.284 14.91 15.75 14.963v.001c8.33-.188 15.444-6.704 15.559-14.964V5.667h-5.894v4.594c-.062 5.341-4.309 9.643-9.664 9.813h-.001c-5.476-.055-9.796-4.493-9.86-9.906v-3.72c0-.482.29-.778.77-.778l18.752-.004V.089zm-.431.436v4.703l-18.32.005c-.72 0-1.203.488-1.203 1.213v3.726a10.452 10.452 0 0 0 3.027 7.265 10.29 10.29 0 0 0 7.223 3.071l.01.002.046-.002c5.59-.177 10.019-4.676 10.084-10.248V6.104h5.028v4.636c-.053 3.839-1.673 7.46-4.562 10.197a15.854 15.854 0 0 1-10.522 4.335h-.039c-4.015-.025-7.82-1.536-10.715-4.254C2.123 18.28.487 14.628.432 10.745V1.61c-.005-.335.09-.612.274-.8.181-.185.444-.283.762-.283h23.513z" fill="#F98919" mask="url(#f)"/></g><path d="M129.75 33.076c5.356-.17 9.604-4.471 9.666-9.813v-4.594h5.893v5.079c-.115 8.26-7.23 14.776-15.558 14.964v-.002c-8.467-.052-15.634-6.615-15.75-14.963v-9.129c-.014-.934.589-1.54 1.497-1.526h23.914v5.576l-18.751.004c-.482 0-.77.296-.77.778v3.72c.063 5.413 4.383 9.85 9.86 9.906z" fill="#F98919"/></g></svg>