<svg width="286" height="26" viewBox="0 0 286 26" xmlns="http://www.w3.org/2000/svg" xmlns:xlink="http://www.w3.org/1999/xlink"><title>logos</title><defs><path id="a" d="M0 20.949h25.743V.073H0z"/></defs><g fill="none" fill-rule="evenodd"><g fill="#FFF"><path d="M44.87 14.346c0 1.972-1.624 3.413-3.868 3.413-2.243 0-3.868-1.44-3.868-3.413v-7.28h-1.547v7.356c0 2.579 2.243 4.778 5.415 4.778s5.416-2.275 5.416-4.778V7.067H44.87v7.28zM57.558 7.067H53.38V19.2h4.178c3.481 0 5.88-2.351 5.88-6.067 0-3.64-2.399-6.066-5.88-6.066zm-.155 10.616h-2.475v-9.1h2.475c2.63 0 4.487 1.744 4.487 4.55 0 3.033-1.934 4.474-4.487 4.55zM91.288 17.91c-2.785 0-4.642-2.047-4.642-4.777s1.934-4.701 4.642-4.701c2.166 0 3.481 1.213 3.481 1.213l.62-1.062s-1.393-1.44-4.256-1.44c-3.713 0-6.034 2.73-6.034 5.99 0 3.337 2.398 6.143 6.189 6.143 2.94 0 4.41-1.972 4.41-1.972l-.851-.91c-.078-.076-1.238 1.517-3.559 1.517zM102.893 7.067h1.547V19.2h-1.547zM111.402 8.583h3.868V19.2h1.548V8.583h3.868V7.067h-9.284zM135.23 7.067l-3.713 5.535-3.791-5.535H126.1l4.642 6.749V19.2h1.547v-5.384l4.565-6.75zM73.417 7.067L68.621 19.2h1.547l1.315-3.489 5.029-1.061 1.702 4.55h1.547L75.04 7.067h-1.624zm-1.47 7.204l2.321-5.612h.078l1.934 4.777-4.333.835z"/></g><path d="M22.435 1.076L15.473 4.64v11.299c0 .455 0 .986-.155 1.44a6.31 6.31 0 0 1-.387 1.29c-.077.076-.077.227-.155.303-.232 0-1.934-.53-2.707-1.061-.31-.228-.62-.455-.929-.759a8.07 8.07 0 0 1-.773-.91 4.811 4.811 0 0 1-.62-1.061c-.154-.38-.309-.759-.386-1.214-.077-.379-.077-.834-.077-1.213V1.91L7.736 1 0 5.474v10.39c0 4.777 3.945 8.644 8.742 8.644 1.625 0 3.094-.38 4.41-1.138l6.498-3.64c2.553-1.289 4.332-3.943 4.332-6.9V1.986l-1.547-.91zm-8.587 19.792c-.696.683-1.238 1.062-2.012 1.44-.464.153-1.005.38-1.47.532-.464.076-.928.151-1.392.151a12.9 12.9 0 0 1-1.702-.151 6.635 6.635 0 0 1-1.315-.38 5.032 5.032 0 0 1-1.238-.682c-1.006-.682-1.47-1.29-1.934-1.896-.232-.379-.464-.758-.696-1.213-.155-.455-.31-.834-.387-1.29-.155-.53-.155-1.06-.155-1.516V6.384l6.19-3.564v9.934c0 3.792 2.862 6.9 6.498 7.659-.155.152-.232.303-.387.455zm8.51-6.825c-.078.38-.232.758-.387 1.138-.155.379-.464.91-.774 1.289-.464.53-.928.91-2.088 1.592-1.006.531-1.857.683-2.399.834.387-.91.387-1.895.387-2.957l-.077-10.39 5.415-2.805V12.83c0 .379 0 .834-.077 1.213z" fill="#02B3E4"/><path d="M249.66 21.503c.22 0 .404.08.55.238a.728.728 0 0 1 .189.577.866.866 0 0 1-.145.408.873.873 0 0 1-.735.393.779.779 0 0 1-.399-.103.675.675 0 0 1-.268-.29.761.761 0 0 1-.073-.408.868.868 0 0 1 .289-.577.855.855 0 0 1 .592-.238m.029-.318c-.338 0-.632.12-.875.359a1.2 1.2 0 0 0-.37.769c-.026.297.058.56.252.782.194.222.461.335.796.335s.621-.113.854-.335c.232-.222.363-.485.389-.782a1.015 1.015 0 0 0-1.046-1.128M273.445 21.525c.22 0 .404.08.55.238a.728.728 0 0 1 .189.578.866.866 0 0 1-.145.406.873.873 0 0 1-.735.394.78.78 0 0 1-.399-.103.675.675 0 0 1-.268-.29.76.76 0 0 1-.073-.407.868.868 0 0 1 .289-.578.855.855 0 0 1 .592-.238m.029-.319c-.338 0-.632.121-.875.36a1.2 1.2 0 0 0-.37.769c-.026.296.058.56.252.782.193.222.461.334.796.334.334 0 .621-.112.854-.334.232-.222.363-.486.389-.782a1.015 1.015 0 0 0-1.046-1.129M253.391 15.063c-.279.122-1.225.398-1.446.422-.349.037-.716.05-.716.05H247.134s-.078.006-.123-.052c-.043-.058-.032-.132-.032-.132l.425-4.963.443-4.963s.002-.074.056-.132c.054-.058.13-.051.13-.051h4.096s.365.01.708.048c.217.024 1.115.3 1.372.423 1.795.869 2.786 2.577 2.61 4.675-.19 2.097-1.48 3.805-3.428 4.675m4.306-9.458c-.938-1.238-2.306-2.054-3.98-2.44-.12-.029-.48-.093-.838-.119-.314-.025-.654-.025-.654-.025l-3.87.012h-2.216v.003a.314.314 0 0 0-.292.28l-.614 7.072-.623 7.072a.253.253 0 0 0 .243.28v.002h2.215l3.868.012s.34 0 .658-.025a6.67 6.67 0 0 0 .86-.119c1.741-.386 3.252-1.2 4.407-2.44a8.115 8.115 0 0 0 2.131-4.782c.152-1.778-.307-3.476-1.295-4.783M262.675 6.42h-1.396c-.243 0-.456.182-.475.403l-.864 9.881c-.002.024 0 .05.001.076.008.531.467.946 1.047.946.58 0 1.112-.415 1.213-.946a.499.499 0 0 0 .015-.076l.864-9.88c.02-.222-.163-.405-.405-.405M262.089 5.136c.62 0 1.163-.462 1.213-1.032.05-.57-.412-1.03-1.033-1.03-.62 0-1.163.46-1.213 1.03-.05.57.413 1.032 1.033 1.032M275.558 15.057c-.278.121-1.223.398-1.444.422-.348.037-.715.048-.715.048h-4.09s-.078.007-.122-.05c-.044-.058-.033-.133-.033-.133l.425-4.956.442-4.957s.002-.074.056-.132c.054-.058.13-.05.13-.05h4.091s.365.01.706.048c.218.024 1.114.3 1.37.422 1.794.868 2.784 2.574 2.607 4.669-.19 2.094-1.478 3.801-3.423 4.669m4.3-9.446c-.936-1.237-2.302-2.05-3.974-2.436a6.17 6.17 0 0 0-.838-.12c-.313-.024-.653-.024-.653-.024l-3.865.012h-2.212v.002a.313.313 0 0 0-.292.28l-.613 7.063-.622 7.063a.253.253 0 0 0 .242.28v.002h2.212l3.864.012s.34 0 .657-.025c.362-.026.734-.09.858-.12 1.74-.384 3.248-1.198 4.402-2.436a8.106 8.106 0 0 0 2.128-4.776c.151-1.776-.306-3.472-1.293-4.777M284.884 6.38h-1.396c-.243 0-.456.182-.475.404l-.864 9.88c-.002.025 0 .05.001.077.008.53.467.945 1.047.945.58 0 1.112-.414 1.213-.946a.499.499 0 0 0 .015-.076l.864-9.88c.02-.222-.163-.404-.405-.404M284.298 5.096c.62 0 1.163-.461 1.213-1.031.05-.57-.412-1.03-1.033-1.03-.62 0-1.163.46-1.212 1.03-.05.57.412 1.031 1.032 1.031M247.96 23.38a.057.057 0 0 1-.014.032.073.073 0 0 1-.036.023.45.45 0 0 1-.065.014.716.716 0 0 1-.264-.014.058.058 0 0 1-.032-.023.053.053 0 0 1-.007-.033l.232-2.656h-.004l-1.313 2.654a.088.088 0 0 1-.023.028.116.116 0 0 1-.04.02.264.264 0 0 1-.063.012.82.82 0 0 1-.17-.001.298.298 0 0 1-.06-.013.113.113 0 0 1-.036-.02.058.058 0 0 1-.016-.026l-.85-2.654h-.003l-.233 2.656a.06.06 0 0 1-.012.033.073.073 0 0 1-.037.023.438.438 0 0 1-.067.014.74.74 0 0 1-.264-.014c-.016-.006-.026-.013-.03-.023a.053.053 0 0 1-.006-.033l.244-2.804c.006-.067.029-.114.067-.142a.206.206 0 0 1 .125-.042h.256c.052 0 .098.004.136.013.039.01.072.025.1.045a.23.23 0 0 1 .067.078.504.504 0 0 1 .042.11l.731 2.196h.012l1.1-2.188a.734.734 0 0 1 .07-.12.36.36 0 0 1 .077-.08.283.283 0 0 1 .089-.041.434.434 0 0 1 .11-.013h.268a.23.23 0 0 1 .07.01.126.126 0 0 1 .053.033.154.154 0 0 1 .033.057c.008.023.01.05.008.084l-.246 2.804zM253.175 21.636a.829.829 0 0 1 .878-.113c.106.05.189.116.248.196a.73.73 0 0 1 .12.294h-1.508a.926.926 0 0 1 .262-.377m1.365.854c-.055 0-.142.07-.142.07l-.015.021a1.41 1.41 0 0 1-.252.286.958.958 0 0 1-.575.193.676.676 0 0 1-.524-.222.73.73 0 0 1-.18-.54h1.908l.002-.029c.022-.286-.037-.53-.178-.721-.196-.272-.483-.41-.851-.41-.358 0-.66.135-.897.4-.187.21-.294.45-.317.717-.025.283.054.54.233.765.18.225.45.34.802.34.159 0 .305-.024.435-.07.13-.048.252-.118.361-.208.108-.09.209-.21.298-.356l.01-.016a.167.167 0 0 0 .022-.066.138.138 0 0 0-.14-.154M262.495 22.73a.859.859 0 0 1-.326.29c-.272.141-.58.143-.821-.001a.712.712 0 0 1-.275-.302.762.762 0 0 1-.077-.407.865.865 0 0 1 .147-.407.9.9 0 0 1 .746-.404c.23 0 .419.079.562.234a.734.734 0 0 1 .186.585.873.873 0 0 1-.142.412zm.526-1.328a.144.144 0 0 0-.146-.133.18.18 0 0 0-.168.133h-.008l-.014.166a.953.953 0 0 0-.31-.272 1.012 1.012 0 0 0-.481-.112c-.31 0-.59.11-.83.328-.24.218-.376.483-.403.79-.027.312.06.58.26.799a1 1 0 0 0 .768.329c.174 0 .34-.036.493-.106.132-.061.257-.148.372-.26l-.013.149h.001a.147.147 0 0 0 .15.163c.09 0 .169-.073.177-.163l.158-1.811h-.006zM268.879 22.765a.859.859 0 0 1-.326.29c-.272.141-.58.143-.822-.001a.763.763 0 0 1-.352-.709.865.865 0 0 1 .147-.406.903.903 0 0 1 .746-.405c.23 0 .42.08.563.234a.734.734 0 0 1 .186.585.873.873 0 0 1-.142.412zm.532-1.328c-.009-.075-.058-.132-.152-.133-.08 0-.15.034-.176.133l-.015.166a.953.953 0 0 0-.31-.272 1.013 1.013 0 0 0-.481-.112c-.31 0-.59.11-.83.328-.24.218-.375.483-.402.79-.027.312.06.58.26.799a1 1 0 0 0 .768.329c.174 0 .34-.036.493-.106.132-.061.256-.148.371-.26l-.013.149h.001a.148.148 0 0 0 .15.163c.09 0 .17-.073.177-.163l.159-1.811zM278.365 21.375l.001-.006c-.08-.072-.179-.077-.258-.088-.133-.018-.386.054-.552.267l.018-.213h-.004a.15.15 0 0 0-.152-.15.186.186 0 0 0-.177.15h-.004l-.174 1.986h.004a.15.15 0 0 0 .151.151.187.187 0 0 0 .179-.151h.004l.05-.58c.032-.357.07-.597.113-.712a.744.744 0 0 1 .215-.328.415.415 0 0 1 .256-.104.35.35 0 0 1 .13.034.141.141 0 0 0 .074.021c.087 0 .164-.07.172-.158a.141.141 0 0 0-.046-.119M252.389 21.238l-.022-.02-.015-.007a.207.207 0 0 0-.024-.01.486.486 0 0 0-.212-.057.605.605 0 0 0-.315.093c-.08.049-.161.119-.24.208l.021-.248h-.003a.15.15 0 0 0-.152-.156.186.186 0 0 0-.18.156h-.002l-.18 2.062-.002.005v.004s-.014.151.154.165c.152.012.184-.17.184-.17l.058-.66c.032-.357.07-.596.113-.711a.749.749 0 0 1 .215-.329.415.415 0 0 1 .256-.103c.036 0 .08.012.132.034l.021.01.002-.003c.016.006.034.011.053.011a.178.178 0 0 0 .175-.16.147.147 0 0 0-.037-.114M265.246 22.346c.025-.286.013-.5-.036-.637a.654.654 0 0 0-.256-.332.755.755 0 0 0-.43-.122c-.162 0-.317.036-.46.11-.122.06-.24.15-.349.266l.014-.16h-.005a.147.147 0 0 0-.15-.163c-.09 0-.169.073-.177.163l-.158 1.812h.004a.147.147 0 0 0 .148.146.182.182 0 0 0 .175-.146h.005l.055-.628c.023-.272.053-.46.087-.56a.82.82 0 0 1 .285-.383.724.724 0 0 1 .444-.155c.139 0 .25.034.329.1a.45.45 0 0 1 .147.294c.014.078.01.238-.01.474l-.074.84h.005l-.001.005a.144.144 0 0 0 .146.16.178.178 0 0 0 .174-.16v-.006h.007l.08-.918zM276.614 21.259a.19.19 0 0 0-.185.17l.001.007-.075.86c-.022.257-.05.426-.084.503a.601.601 0 0 1-.234.27.71.71 0 0 1-.385.103.635.635 0 0 1-.373-.106.463.463 0 0 1-.19-.287c-.017-.086-.016-.248.004-.482l.076-.867v-.002a.15.15 0 0 0-.15-.166.185.185 0 0 0-.181.166l-.08.9c-.025.298-.01.526.048.676a.706.706 0 0 0 .293.357.989.989 0 0 0 .525.128c.214 0 .397-.043.547-.128a.92.92 0 0 0 .353-.353c.084-.149.139-.371.164-.66l.08-.92a.153.153 0 0 0-.154-.17M281.548 21.71a.84.84 0 0 1 .887-.115c.107.05.191.117.252.199a.741.741 0 0 1 .119.297h-1.522a.932.932 0 0 1 .264-.382m1.362.881a.173.173 0 0 0-.137.075h-.004c-.094.132-.179.229-.254.288a.964.964 0 0 1-.581.196.684.684 0 0 1-.53-.224.737.737 0 0 1-.182-.547h1.927l.002-.028c.023-.29-.037-.535-.178-.73-.2-.274-.489-.414-.862-.414-.361 0-.667.137-.906.405-.189.211-.296.454-.32.724-.025.286.054.546.235.773.182.228.455.343.811.343.16 0 .308-.024.44-.071a1.22 1.22 0 0 0 .364-.21c.11-.09.212-.211.302-.36a.166.166 0 0 0 .017-.061.143.143 0 0 0-.144-.159M280.593 22.294c.024-.286.013-.5-.036-.637a.653.653 0 0 0-.256-.332.754.754 0 0 0-.43-.123c-.162 0-.317.037-.46.11-.123.062-.24.15-.35.266l.015-.156.001-.006v-.007l.001-.018h-.003a.148.148 0 0 0-.15-.143.185.185 0 0 0-.176.143h-.003l-.001.014c0 .004-.003.007-.003.01l.001.01-.162 1.865a.15.15 0 0 0 .15.165.184.184 0 0 0 .18-.165h.002l.06-.688c.023-.271.053-.46.087-.558a.818.818 0 0 1 .285-.384.723.723 0 0 1 .443-.155c.14 0 .25.033.33.099a.45.45 0 0 1 .147.295c.013.078.01.237-.011.473l-.08.917h.001a.15.15 0 0 0 .151.165.184.184 0 0 0 .18-.165l.087-.995zM285.296 21.024a.145.145 0 0 0-.146-.16.177.177 0 0 0-.157.099h-.001l-.834 1.563-.582-1.564-.002.001a.144.144 0 0 0-.132-.085.18.18 0 0 0-.176.161c0 .013.003.023.004.034l-.007.002.682 1.84-.351.636a.172.172 0 0 0-.03.08.148.148 0 0 0 .149.163.18.18 0 0 0 .167-.126h.001l1.411-2.603-.008-.003c.005-.012.01-.025.012-.038M260.328 21.59a.657.657 0 0 0-.256-.33.754.754 0 0 0-.43-.124c-.161 0-.315.037-.46.11a1.3 1.3 0 0 0-.35.267l.075-.967c.006-.075-.065-.155-.145-.155a.181.181 0 0 0-.17.133l-.243 2.722s-.016.184.148.184c.178 0 .184-.184.184-.184l.062-.71c.024-.273.053-.46.087-.559a.822.822 0 0 1 .285-.383.722.722 0 0 1 .444-.155c.139 0 .25.033.328.099.078.065.129.164.15.295.013.078.008.237-.013.473l-.085.951c.015.144.087.173.155.173.146 0 .178-.166.178-.166l.09-1.036c.026-.287.014-.501-.034-.638M257.976 21.19h-.323l.058-.632a.151.151 0 0 0-.153-.168.187.187 0 0 0-.183.168l-.054.632h-.376v.002h-.001a.157.157 0 0 0-.154.142.127.127 0 0 0 .13.14v.003h.376l-.156 1.777s-.001.175.145.175c.16 0 .185-.154.185-.154l.157-1.798h.324s.124-.012.136-.143c.011-.128-.11-.144-.11-.144M271.736 20.515a.215.215 0 0 0-.148.058.21.21 0 0 0-.071.14c-.005.054.01.1.046.139a.18.18 0 0 0 .138.058c.056 0 .106-.02.148-.058a.209.209 0 0 0 .071-.139.18.18 0 0 0-.185-.198M271.844 21.292a.155.155 0 0 0-.162-.166.189.189 0 0 0-.13.051.181.181 0 0 0-.06.114c-.002.003-.004.006-.004.009l-.155 1.759c-.01.115-.023.203-.04.26a.42.42 0 0 1-.07.147c-.073.093-.166.101-.199.105 0 0-.235.003-.242.015-.002.003-.064.043-.072.128a.133.133 0 0 0 .097.145h.248s.135 0 .235-.045a.573.573 0 0 0 .332-.378c.033-.094.055-.22.07-.375l.154-1.761-.002-.008" fill="#FFF"/><path d="M224.95 19.358c4.404-.138 7.896-3.643 7.947-7.996V7.62h4.846v4.139c-.095 6.73-5.944 12.04-12.792 12.192-6.962-.044-12.855-5.391-12.95-12.193V4.318c-.012-.76.484-1.254 1.23-1.243h19.664v4.543l-15.419.004c-.395 0-.633.241-.633.633v3.031a8.166 8.166 0 0 0 8.107 8.072z" fill="#F98919"/><g transform="translate(212 3.002)"><mask id="b" fill="#fff"><use xlink:href="#a"/></mask><path d="M20.895.073H1.207C.474.073-.011.564 0 1.317v7.438c.096 6.802 5.989 12.15 12.95 12.193 6.849-.152 12.698-5.461 12.793-12.192V4.618h-4.846V8.36c-.051 4.352-3.543 7.857-7.946 7.995h-.001a8.166 8.166 0 0 1-8.107-8.071V5.253c0-.392.238-.633.633-.633l15.419-.003V.073zm-.355.355v3.833l-15.064.004c-.59 0-.988.397-.988.988V8.29a8.478 8.478 0 0 0 2.489 5.92 8.498 8.498 0 0 0 5.939 2.502l.008.002.038-.002c4.595-.144 8.237-3.81 8.29-8.35V4.973h4.135v3.778c-.044 3.128-1.376 6.079-3.75 8.309a13.097 13.097 0 0 1-8.653 3.532h-.031c-3.302-.02-6.43-1.251-8.81-3.466C1.745 14.894.4 11.919.355 8.756V1.31C.351 1.038.43.813.581.66c.148-.15.365-.23.626-.23H20.54z" fill="#F98919" mask="url(#b)"/></g><path d="M224.95 19.358c4.404-.138 7.896-3.643 7.947-7.996V7.62h4.846v4.139c-.095 6.73-5.944 12.04-12.792 12.192-6.962-.044-12.855-5.391-12.95-12.193V4.318c-.012-.76.484-1.254 1.23-1.243h19.664v4.543l-15.419.004c-.395 0-.633.241-.633.633v3.031a8.166 8.166 0 0 0 8.107 8.072z" fill="#F98919"/><path d="M175 1v24" stroke="#7D97AD" stroke-linecap="square"/></g></svg>