<svg xmlns="http://www.w3.org/2000/svg" width="141.769" height="52.975" viewBox="0 0 141.769 52.975"><path fill="#FFF" d="M68.436 14.516a.121.121 0 0 0-.068-.021.125.125 0 0 0-.091.04l-1.508 1.727a.13.13 0 0 0-.031.094.12.12 0 0 0 .049.086c1.193.889 2.84 2.288 5.033 4.276.024.02.054.032.083.032a.128.128 0 0 0 .09-.041c.465-.511 1.039-1.14 1.752-1.933a.11.11 0 0 0 .029-.09.125.125 0 0 0-.041-.086c-2.097-1.74-3.881-3.116-5.297-4.084zM72.933 24.224a21.04 21.04 0 0 1-2.428-.993.127.127 0 0 0-.052-.011.149.149 0 0 0-.054.011.124.124 0 0 0-.065.086c-.922 4.546-1.896 8.434-2.895 11.553a.139.139 0 0 0 .007.096.136.136 0 0 0 .073.06l2.657.783a.078.078 0 0 0 .035.006.14.14 0 0 0 .062-.016.117.117 0 0 0 .056-.078c1.086-4.658 1.938-8.265 2.683-11.351a.12.12 0 0 0-.079-.146zM69.62 6.492a.113.113 0 0 0-.076-.026.113.113 0 0 0-.089.04L67.92 8.164a.118.118 0 0 0-.032.092.119.119 0 0 0 .045.086 49.322 49.322 0 0 1 4.574 4.301.12.12 0 0 0 .09.04.124.124 0 0 0 .091-.04l1.751-1.867a.123.123 0 0 0 .031-.089.113.113 0 0 0-.04-.086c-1.945-1.757-3.517-3.101-4.81-4.109zM98.58 8.469H88.353l-.007-3.462a.124.124 0 0 0-.125-.122h-2.83a.126.126 0 0 0-.086.037.131.131 0 0 0-.035.086l.008 3.461H74.979a.12.12 0 0 0-.12.122v1.777a.12.12 0 0 0 .12.122h4.37c.148.36.312.803.488 1.271.338.907.717 1.928 1.155 2.873h-2.474c-1.804-.042-2.604.661-2.577 2.681v18.728c0 .068.054.122.122.122h2.56a.122.122 0 0 0 .121-.122V17.804c.017-.738.309-1.042 1.045-1.053h5.587v2.964h-5.138a.12.12 0 0 0-.122.122v1.611c0 .067.054.123.122.123h5.138v3.147h-3.982a.122.122 0 0 0-.123.122v7.669c0 .066.054.123.123.123h7.7c.218.008.412.012.594.012 1.09 0 1.69-.165 2.082-.571.405-.42.558-1.097.514-2.258V24.84a.122.122 0 0 0-.122-.122H88.05V21.57h5.269a.123.123 0 0 0 .123-.123v-1.611a.12.12 0 0 0-.123-.122H88.05V16.75h5.598c.861-.001 1.073.455 1.034 1.35v14.591c0 .837-.667 1.013-1.229 1.013H90.35a.122.122 0 0 0-.085.036.121.121 0 0 0-.034.088l.008 2.025c0 .067.055.123.121.123h4.137c1.961 0 2.957-.944 2.957-2.801l.033-15.722c.023-2-.59-2.843-2.978-2.819h-2.064c.566-1.104 1.047-2.472 1.437-3.583.07-.195.135-.383.199-.56h4.499a.12.12 0 0 0 .122-.122V8.59a.12.12 0 0 0-.122-.121zm-7.472 2.02c-.253.597-.94 2.344-1.371 3.441-.122.313-.223.563-.278.703h-5.361c-.085-.208-.31-.72-.641-1.473-.434-.985-.96-2.182-1.151-2.671h8.802zm-7.154 20.424v-4.226h5.643v2.878c-.022 1.292-.041 1.293-1.165 1.34l-.17.007h-4.308z"/><g><path fill="#FFF" d="M105.111 14.292a.119.119 0 0 0-.069-.021.119.119 0 0 0-.091.041l-1.509 1.727a.124.124 0 0 0-.028.095.132.132 0 0 0 .047.084c1.192.89 2.839 2.288 5.035 4.277a.12.12 0 0 0 .081.031.131.131 0 0 0 .091-.04c.465-.51 1.04-1.14 1.75-1.934a.116.116 0 0 0 .033-.09.125.125 0 0 0-.044-.085c-2.099-1.741-3.881-3.117-5.296-4.085zM109.608 24a21.079 21.079 0 0 1-2.426-.993.11.11 0 0 0-.054-.012.115.115 0 0 0-.053.012.129.129 0 0 0-.068.086c-.919 4.546-1.893 8.434-2.894 11.553a.13.13 0 0 0 .009.096.135.135 0 0 0 .074.06l2.658.782a.071.071 0 0 0 .034.006.12.12 0 0 0 .119-.094c1.086-4.658 1.937-8.264 2.682-11.35.012-.064-.019-.127-.081-.146zM106.294 6.267a.12.12 0 0 0-.165.015l-1.536 1.658a.115.115 0 0 0-.033.091.133.133 0 0 0 .044.087 49.757 49.757 0 0 1 4.577 4.301.118.118 0 0 0 .177 0l1.752-1.868a.13.13 0 0 0 .034-.088.124.124 0 0 0-.04-.085c-1.943-1.758-3.518-3.103-4.81-4.111zM135.255 8.244h-10.228l-.008-3.462a.121.121 0 0 0-.122-.121h-2.83a.123.123 0 0 0-.122.122l.009 3.461h-10.299a.122.122 0 0 0-.122.122v1.778c0 .067.056.121.122.121h4.371c.147.361.313.803.487 1.271.335.908.717 1.929 1.154 2.874h-2.476c-1.805-.042-2.604.661-2.575 2.681v18.728a.12.12 0 0 0 .12.122h2.56a.123.123 0 0 0 .124-.122v-18.24c.015-.737.305-1.042 1.044-1.053h5.588v2.964h-5.14a.122.122 0 0 0-.122.123v1.611c0 .066.054.122.122.122h5.14v3.146h-3.983a.124.124 0 0 0-.123.123v7.669c0 .066.057.122.123.122h7.7c.217.008.413.012.593.012 1.09 0 1.693-.165 2.082-.571.406-.42.561-1.097.515-2.258v-4.974a.122.122 0 0 0-.121-.123h-4.115v-3.146h5.273a.123.123 0 0 0 .121-.122v-1.611a.122.122 0 0 0-.121-.123h-5.273v-2.964h5.599c.861-.001 1.073.455 1.034 1.35v14.59c0 .836-.669 1.012-1.231 1.012h-3.1a.126.126 0 0 0-.088.037.127.127 0 0 0-.035.088l.011 2.025a.122.122 0 0 0 .121.122h4.14c1.96 0 2.953-.943 2.953-2.801l.035-15.722c.023-2.001-.594-2.845-2.981-2.819h-2.065c.568-1.104 1.048-2.473 1.439-3.584.068-.194.134-.382.2-.56h4.498a.121.121 0 0 0 .121-.121V8.366a.12.12 0 0 0-.119-.122zm-7.474 2.021c-.254.597-.938 2.344-1.372 3.442-.121.311-.22.563-.276.702h-5.362a66.65 66.65 0 0 0-.638-1.473c-.437-.985-.962-2.181-1.155-2.671h8.803zm-7.151 20.423v-4.225h5.642v2.879c-.021 1.292-.044 1.292-1.166 1.34l-.169.007h-4.307z"/></g><g><path fill="#FFF" d="M92.556 42.195v-.471h6.238v.471h-3.136v5.323h-.615v-5.323h-2.487zm5.672 2.931a11.71 11.71 0 0 0-2.275-1.236l.019-.503c.894.283 1.635.703 2.256 1.095v.644zM106.88 45.751h2.424v-.366h-2.561a.663.663 0 0 1-.024-.187v-.61h2.666v-.361h-2.692v-.799h2.218v-.369h-2.218v-.737h2.506v-.345h-1.293c.086-.157.142-.35.159-.58h-.553a1.64 1.64 0 0 1-.159.58h-1.873a1.895 1.895 0 0 1-.135-.58h-.557c.037.229.084.423.14.58h-1.296v.345h2.48v.737h-2.136v.369h2.136v.799h-2.64v.361h2.667v.61c0 .035-.027.168-.027.187h-2.563v.366h2.431c-.333.583-1.251.999-2.586 1.209v.456c1.406-.213 2.419-.661 3.037-1.349.596.688 1.612 1.136 3.035 1.349v-.487c-1.392-.32-2.253-.595-2.586-1.178zM67.035 43.094c.28.192.632.467 1.062.821-.152.163-.267.289-.359.383a13.236 13.236 0 0 0-1.001-.857l.298-.347zM67.457 44.842c.169.081.33.145.489.199-.163.666-.341 1.42-.539 2.268l-.528-.158c.195-.627.391-1.395.578-2.309zM67.274 41.491c.258.203.577.476.959.821l-.35.373a9.326 9.326 0 0 0-.921-.862l.312-.332zM71.795 45.143h-2.148v1.53h1.539c.477.015.628-.057.609-.534v-.996zm-.778 1.235h-.887v-.894h1.176v.603c-.004.291-.028.28-.289.291z"/><path fill="#FFF" d="M73.081 42.243v-.349h-2.028l.014-.632h-.568l-.009.632h-2.13v.349h.888c.092.221.202.58.35.877h-.533c-.373.022-.469.142-.487.518v3.743h.507v-3.589c.021-.176.119-.274.299-.291h1.081v.642h-1.057v.319h1.057v.688h.481v-.688h1.084v-.319h-1.084V43.5h1.108c.177 0 .271.095.271.291v2.923c0 .139-.093.222-.271.222h-.621v.407h.829c.379 0 .57-.182.57-.539l.005-3.139c0-.41-.145-.546-.575-.546h-.451c.14-.264.262-.62.35-.877h.92zm-1.807.877h-1.107c-.019-.05-.343-.763-.378-.877h1.833c-.035.076-.314.794-.348.877zM75.898 43.094c.272.192.625.467 1.053.821-.146.163-.264.289-.348.383a14.762 14.762 0 0 0-1.009-.857l.304-.347zM76.311 44.842c.168.081.332.145.487.199-.16.666-.338 1.42-.535 2.268l-.529-.158a22.55 22.55 0 0 0 .577-2.309zM76.128 41.491c.255.203.58.476.957.821l-.346.373a10.13 10.13 0 0 0-.917-.862l.306-.332z"/><g><path fill="#FFF" d="M80.648 45.143H78.5v1.53h1.537c.476.015.633-.057.611-.534v-.996zm-.775 1.235h-.886v-.894h1.177v.603c-.007.291-.033.28-.291.291z"/></g><g><path fill="#FFF" d="M81.932 42.243v-.349h-2.019l.006-.636h-.564l-.011.636h-2.131v.349h.891c.088.221.212.58.354.877h-.535c-.374.022-.474.142-.491.518v3.743h.512v-3.589c.018-.176.116-.274.299-.291h1.077v.642h-1.051v.319h1.051v.688h.483v-.688h1.079v-.319h-1.079V43.5h1.106c.179 0 .266.095.266.291v2.923c0 .139-.086.222-.266.222h-.624l.004.407h.827c.379 0 .569-.182.569-.539l.004-3.141c0-.409-.139-.544-.57-.544h-.455c.144-.264.263-.62.348-.877h.92zm-1.803.877h-1.104c-.021-.05-.344-.763-.378-.877h1.829c-.035.076-.312.794-.347.877z"/></g><g><path fill="#FFF" d="M120.541 47.346v-2.635h.574l.021 2.225h2.086v-2.709h-2.435l.016-2.478h.545l.01 2.04h1.865V41.33h.64v2.459h1.666c.176-.016.266-.115.266-.293V41.75h.552v1.988c-.033.294-.195.454-.488.489h-1.996v2.709h1.861c.18 0 .268-.095.268-.274v-1.951h.575v2.121c-.019.323-.226.495-.633.513h-5.393z"/></g><g><path fill="#FFF" d="M84.418 43.993v-.491h5.66V44l-5.66-.007z"/></g><g><path fill="#FFF" d="M112.313 47.413l-.414-.296c.433-.368.84-.78 1.151-1.287-.218-.218-.958-.977-.958-.977l.466-2.186h-.544v-.411h.627l.163-.924h.544l-.188.924.76-.004c.458-.014.515.141.521.578a5.485 5.485 0 0 1-.208 1.471 7.79 7.79 0 0 1-.555 1.435l.985.987-.358.331c-.272-.256-.576-.538-.901-.844-.22.384-.582.779-1.091 1.203zm1.008-2.096c.361-.67.659-1.455.659-2.471 0-.146-.101-.176-.222-.178h-.654l-.406 1.991c.001-.001.571.607.623.658zm4.826-.851h-1.527v2.371c0 .346-.237.519-.708.519l-1.212.018.012-.425h.9c.29.014.402-.087.407-.355v-2.128h-1.608v-.407h1.608v-.52c.556-.526.962-.928 1.355-1.339l-2.635.01v-.443l2.924.001c.269-.01.502.285.22.578-.341.352-.686.719-1.27 1.29l.007.423h1.527v.407z"/></g><g><path fill="#FFF" d="M129.848 47.53v-2.748a5.293 5.293 0 0 1-.382.46.306.306 0 0 1-.053.085l-.406-.275a9.15 9.15 0 0 0 1.275-1.907h.518c-.216.488-.428.958-.428.958l.048 3.427h-.572zm-.358-4.164l-.407-.243a8.432 8.432 0 0 0 1.144-1.741h.546a9.958 9.958 0 0 1-1.283 1.984zm2.924 4.081l-.008-.407h.978c.2.017.298-.075.298-.271V43.91h-2.587v-.407h4.248v.407h-1.085v3.05c-.039.289-.212.45-.521.486h-1.323zm-.96-5.416v-.436h3.617v.436h-3.617z"/></g></g><g fill="#FFF"><path fill-rule="evenodd" clip-rule="evenodd" d="M30.094 38.121c9.043-.284 16.213-7.478 16.318-16.412l-.001-7.683h9.95v8.494c-.194 13.815-12.205 24.714-26.267 25.027v-.002C15.799 47.457 3.699 36.479 3.502 22.519V7.25c-.023-1.562.996-2.575 2.53-2.552l40.375-.002v9.327l-31.66.008c-.813 0-1.299.495-1.299 1.3v6.222c.107 9.054 7.4 16.476 16.646 16.568z"/><path d="M45.677 5.426v7.868l-30.93.007c-1.214 0-2.029.815-2.029 2.029v6.231a17.401 17.401 0 0 0 5.109 12.151c3.245 3.252 7.574 5.075 12.195 5.137l.017.003.078-.002c9.437-.296 16.915-7.822 17.025-17.141l-.001-6.954h8.491v7.755c-.09 6.421-2.826 12.478-7.703 17.055-4.804 4.509-11.11 7.082-17.765 7.251h-.065c-6.78-.042-13.204-2.569-18.09-7.115C7.086 35.12 4.324 29.014 4.232 22.52V7.24c-.008-.56.152-1.023.463-1.339.304-.311.749-.474 1.285-.474h.052l39.645-.001m.73-.73l-40.375.002H5.98c-1.505 0-2.501 1.008-2.478 2.552v15.269c.197 13.961 12.297 24.938 26.592 25.026v.002c14.062-.314 26.073-11.212 26.267-25.027v-8.494h-9.95l.001 7.683c-.105 8.933-7.276 16.128-16.318 16.412h-.001c-9.246-.092-16.538-7.514-16.646-16.568V15.33c0-.805.487-1.3 1.299-1.3l31.66-.008V4.696h.001z"/><path fill-rule="evenodd" clip-rule="evenodd" d="M30.094 38.121c9.043-.284 16.213-7.478 16.318-16.412l-.001-7.683h9.95v8.494c-.194 13.815-12.205 24.714-26.267 25.027v-.002C15.799 47.457 3.699 36.479 3.502 22.519V7.25c-.023-1.562.996-2.575 2.53-2.552l40.375-.002v9.327l-31.66.008c-.813 0-1.299.495-1.299 1.3v6.222c.107 9.054 7.4 16.476 16.646 16.568z"/></g></svg>