<svg xmlns="http://www.w3.org/2000/svg" width="473.174" height="112.479" viewBox="0 0 473.174 112.479"><path fill="#FFF" d="M38.5 3L3.142 23.304 3 70.071c-.065 21.479 17.265 38.944 38.708 39.009a38.599 38.599 0 0 0 19.473-5.169l28.688-16.475c11.292-5.869 19.022-17.671 19.064-31.297l.148-48.841-7.047-4.104-28.289 16.245.002.003-.154 50.843a32.16 32.16 0 0 1-.665 6.419 31.68 31.68 0 0 1-2.538 7.43 27.962 27.962 0 0 1-12.609-4.689 28.438 28.438 0 0 1-10.202-12.483 28.16 28.16 0 0 1-2.182-11.015h.001l.148-48.84L38.5 3zm15.6 96.549a31.49 31.49 0 0 1-5.959 1.833 32.053 32.053 0 0 1-12.819-.039 31.615 31.615 0 0 1-5.948-1.869 31.776 31.776 0 0 1-10.078-6.853 31.836 31.836 0 0 1-6.78-10.137 31.674 31.674 0 0 1-1.83-5.969 32.11 32.11 0 0 1-.626-6.422l.13-42.685 28.286-16.243-.136 44.759h-.001c-.052 17.008 11.893 31.247 27.856 34.678a32.065 32.065 0 0 1-6.692 6.03 31.799 31.799 0 0 1-5.403 2.917zm47.182-37.725a28.186 28.186 0 0 1-1.658 5.295 28.319 28.319 0 0 1-6.082 8.975 28.422 28.422 0 0 1-4.195 3.445 28.164 28.164 0 0 1-4.802 2.592 27.936 27.936 0 0 1-6.398 1.828 38.865 38.865 0 0 0 2.504-13.643l.142-46.774h.001l21.214-12.183-.136 44.759a28.544 28.544 0 0 1-.59 5.706zM186.829 98.074c0 4.69-3.92 8.526-9.211 8.526s-9.105-3.835-9.105-8.526v-16.82h-2.814v16.859c0 6.046 4.66 10.956 11.919 10.956s12.029-4.91 12.029-10.956l.003-16.858h-2.818l-.003 16.819zm29.993-16.819h-8.857v27.473h8.805c8.183 0 13.745-5.085 13.745-13.767 0-8.604-5.511-13.706-13.693-13.706zm-.267 25.002l-5.772.006V83.721h5.771c6.669 0 11.169 3.993 11.169 11.24 0 7.287-4.46 11.296-11.168 11.296zm78.69.332c-6.475 0-11.105-5.309-11.105-11.822 0-6.433 4.63-11.395 11.028-11.395 5.119 0 8.298 3.023 8.298 3.023l1.435-1.976s-3.296-3.517-9.81-3.517c-7.794 0-13.743 5.997-13.743 13.904 0 7.945 5.793 14.274 13.859 14.274 6.709 0 10.431-4.235 10.431-4.235l-1.552-1.899c.001 0-3.333 3.643-8.841 3.643zm28.244 2.126h2.819V81.248h-2.819v27.467zm19.021-24.994h9.862v25.007h2.818V83.721l9.862-.005v-2.461H342.51v2.466zm55.266-2.466l-8.741 12.64h-.077l-8.826-12.639h-3.064L387.594 96.9v11.811h2.809V96.9l10.399-15.645h-3.026zm-143.425 0l-11.11 27.459h2.939l2.941-7.323 12.366-2.535 3.975 9.858h2.939L257.29 81.255h-2.939zm-3.995 17.106l5.426-13.307h.076l4.583 11.24-10.085 2.067z"/><g fill="#FFF"><path d="M184.263 4.305c-1.802 4.847-4.039 9.632-6.524 14.168v41.075h-4.412V25.557a65.775 65.775 0 0 1-5.22 6.586l-2.672-4.536C171.214 21.58 176.62 12.383 179.913 3l4.35 1.305zm15.038 17.586c-1.118 15.224-4.536 29.206-15.784 37.408l-3.417-3.356c10.564-7.394 13.671-20.133 14.665-34.052h-13.671v-4.412h13.982c.186-4.599.248-9.259.248-13.857h4.536c0 4.598-.062 9.259-.311 13.857h22.185v4.412h-22.433zm16.094 32.305c1.803 0 2.176-1.43 2.362-9.57 1.216.669 2.97 1.459 4.101 1.988-.435 9.259-1.616 11.807-6.09 11.807h-7.208c-4.847 0-6.152-1.491-6.152-6.524V27.289h4.536v24.608c0 1.864.31 2.299 2.175 2.299h6.276zm-.869-38.085c-1.678-2.547-5.282-6.524-8.327-9.383l3.232-2.299c2.982 2.734 6.711 6.649 8.513 9.135l-3.418 2.547zM264.742 48.098c1.243.746 2.548 2.051 4.598 3.355 4.039 2.672 9.197 3.107 16.281 3.107 7.394 0 16.467-.497 22.308-1.181-.371 1.302-.986 3.48-1.367 4.847-4.101.311-15.473.683-21.066.683-7.892 0-12.987-.745-17.275-3.604-2.486-1.678-4.536-3.915-5.903-3.915-2.051 0-5.096 3.79-8.327 8.327l-3.169-4.226c3.293-3.79 6.586-6.648 9.321-7.705V31.444h-8.575V26.97h13.173v21.128zM261.137 18.1c-1.367-3.231-4.66-8.264-7.581-11.993l3.915-1.926c3.045 3.543 6.338 8.451 7.767 11.683l-4.101 2.236zm41.448 29.766c-3.355-5.034-10.005-12.739-16.094-19.077-2.361 8.203-6.711 15.038-15.224 19.512l-3.17-3.542c10.502-5.344 14.23-14.417 15.597-25.291h-15.162v-4.474h15.659c.311-3.853.373-7.83.497-11.993h4.661c-.124 4.101-.249 8.078-.559 11.993h17.773v4.474h-18.269c-.124 1.491-.373 2.92-.622 4.412 6.836 6.648 14.852 15.473 18.767 21.065l-3.854 2.921zM389.59 42.645h-25.291v11.869c0 2.797-.746 4.101-2.982 4.785-2.238.746-5.78.808-11.434.808-.625-1.301-1.243-3.17-1.926-4.474 4.723.186 8.949.186 10.129.062 1.305-.062 1.616-.373 1.616-1.243V42.645H334.97v-4.287h24.732v-4.474c3.604-1.305 7.581-3.417 10.75-5.53h-25.104v-4.101h30.386l3.915 2.051c-3.977 3.666-9.756 7.084-15.348 9.569v2.486h25.291v4.286zm-49.3-16.653h-4.078V13.751h10.253c-1.118-2.361-3.356-5.53-5.344-7.892l3.853-1.802c2.299 2.61 4.846 6.09 5.903 8.451l-2.361 1.243h13.609c-.87-2.61-2.797-6.463-4.661-9.259L361.441 3c2.113 2.921 4.288 6.836 5.033 9.446l-3.169 1.305h10.129c2.299-2.859 4.847-6.898 6.276-9.88l4.661 1.616a123.097 123.097 0 0 1-6.028 8.265h10.13v12.242h-4.356l.047-8.078h-43.81l-.064 8.076zM432.135 44.634c-5.903 2.486-12.117 4.847-16.965 6.774l-1.491-4.536a292.495 292.495 0 0 0 7.271-2.548V22.388h-6.526V18.1h6.526V3.746h4.288V18.1h5.903v4.287h-5.903V42.77l6.027-2.237.87 4.101zm36.663-20.258c-2.051 8.078-4.909 15.038-8.7 20.942 1.491 5.965 3.293 9.445 5.406 9.445 1.18 0 1.802-3.045 2.051-10.191 1.1.948 2.363 1.722 3.417 2.361-.684 9.321-1.988 12.18-6.027 12.18-3.48 0-6.091-3.48-8.016-9.321-2.983 3.79-6.401 7.084-10.378 9.756-.621-.87-2.299-2.548-3.231-3.17 4.847-2.982 8.886-6.959 12.242-11.744-1.616-7.394-2.547-17.088-2.982-27.839h-14.541v8.327h11.869s0 1.305-.062 1.864c-.186 14.168-.435 19.139-1.615 20.693-.746 1.118-1.678 1.553-3.169 1.74-1.181.124-3.356.124-5.593 0-.124-1.243-.435-2.859-1.057-3.915 2.114.186 4.039.186 4.847.186.746 0 1.243-.062 1.492-.622.683-.932.932-4.909 1.118-16.032h-7.83v2.734c0 8.699-1.056 20.506-7.706 28.212-.683-.87-2.423-2.361-3.417-2.921 6.215-7.146 6.836-17.337 6.836-25.353V12.507h18.704A238.442 238.442 0 0 1 452.27 3h4.412c0 3.232 0 6.463.062 9.507h8.326c-1.491-1.988-4.536-5.033-7.146-7.084l3.107-1.988c2.734 1.988 5.903 4.847 7.394 6.959l-3.107 2.113h4.536v4.288h-12.987c.31 8.576 1.056 16.281 1.988 22.371 2.486-4.599 4.288-9.756 5.655-15.473l4.288.683z"/></g></svg>