<svg width="224" height="26" viewBox="0 0 224 26" xmlns="http://www.w3.org/2000/svg"><title>logos</title><g fill="none" fill-rule="evenodd"><g fill="#FFF"><path d="M8.984 14.052c0 1.91-1.572 3.306-3.743 3.306-2.172 0-3.744-1.396-3.744-3.306V7H0v7.126c0 2.498 2.171 4.628 5.24 4.628 3.07 0 5.241-2.204 5.241-4.628V7H8.984v7.052zM21.262 7h-4.043v11.754h4.043c3.368 0 5.69-2.277 5.69-5.877C26.951 9.351 24.63 7 21.261 7zm-.15 10.285h-2.396V8.469h2.396c2.545 0 4.342 1.69 4.342 4.408 0 2.938-1.872 4.334-4.342 4.408zM53.903 17.505c-2.696 0-4.492-1.983-4.492-4.628s1.871-4.555 4.492-4.555c2.096 0 3.369 1.176 3.369 1.176l.598-1.029s-1.347-1.396-4.117-1.396c-3.594 0-5.84 2.645-5.84 5.804 0 3.232 2.321 5.95 5.99 5.95 2.844 0 4.267-1.91 4.267-1.91l-.824-.881c-.074-.074-1.197 1.47-3.443 1.47zM65.132 7h1.497v11.754h-1.497zM73.367 8.47h3.744v10.284h1.497V8.469h3.743V7h-8.984zM96.426 7l-3.594 5.363L89.164 7h-1.572l4.492 6.538v5.216h1.497v-5.216L97.998 7zM36.609 7l-4.642 11.754h1.498l1.272-3.38 4.866-1.028 1.647 4.408h1.498L38.18 7h-1.572zm-1.423 6.979l2.246-5.436h.075l1.872 4.628-4.193.808z"/></g><path d="M164-15h60v48h-60z"/><g fill="#FFF"><path d="M194.61 20.367c.177 0 .328.067.446.198.118.132.17.293.154.48a.73.73 0 0 1-.716.664.623.623 0 0 1-.323-.085.556.556 0 0 1-.219-.242.644.644 0 0 1-.059-.338.727.727 0 0 1 .235-.479.687.687 0 0 1 .481-.198m.023-.264c-.274 0-.513.1-.71.298-.18.18-.28.394-.301.639a.853.853 0 0 0 .204.65c.158.184.376.277.648.277a.959.959 0 0 0 .693-.278 1.01 1.01 0 0 0 .317-.65.856.856 0 0 0-.192-.64.815.815 0 0 0-.659-.296M213.94 20.385c.179 0 .33.067.447.198.118.132.17.293.154.48a.73.73 0 0 1-.117.338.715.715 0 0 1-.598.327.624.624 0 0 1-.324-.086.556.556 0 0 1-.218-.241.644.644 0 0 1-.06-.338.727.727 0 0 1 .236-.48.687.687 0 0 1 .48-.198m.024-.264c-.274 0-.514.1-.71.298-.18.18-.28.394-.301.639a.853.853 0 0 0 .204.65c.158.184.375.277.648.277a.959.959 0 0 0 .693-.278 1.01 1.01 0 0 0 .317-.65.856.856 0 0 0-.192-.64.815.815 0 0 0-.659-.296M197.642 15.018c-.227.102-.996.331-1.176.351-.283.031-.582.04-.582.04h-3.328s-.064.006-.1-.042c-.035-.048-.026-.11-.026-.11l.346-4.121.36-4.122s.001-.062.045-.11.106-.042.106-.042H196.616s.297.009.575.04c.177.02.906.25 1.115.351 1.46.722 2.265 2.14 2.121 3.883-.154 1.742-1.203 3.16-2.785 3.882m3.5-7.855c-.763-1.028-1.875-1.705-3.236-2.025a4.879 4.879 0 0 0-.68-.1c-.256-.02-.532-.02-.532-.02l-3.146.01h-1.8v.002a.257.257 0 0 0-.238.232l-.499 5.874-.506 5.873a.209.209 0 0 0 .197.233v.002h1.8l3.144.01s.277 0 .535-.02c.295-.022.597-.076.699-.1 1.415-.32 2.643-.997 3.582-2.026a6.81 6.81 0 0 0 1.732-3.972c.123-1.477-.25-2.887-1.052-3.973M205.187 7.84h-1.134c-.198 0-.37.151-.387.335l-.702 8.206a.43.43 0 0 0 .001.064c.007.44.38.785.851.785.472 0 .904-.344.986-.785a.422.422 0 0 0 .012-.064l.702-8.206c.016-.184-.132-.335-.329-.335M204.71 6.774c.505 0 .946-.383.987-.857.04-.473-.335-.856-.84-.856-.503 0-.945.383-.986.856-.04.474.336.857.84.857M215.659 15.013c-.226.101-.994.33-1.174.351-.283.03-.582.04-.582.04h-3.324s-.063.006-.099-.042c-.035-.048-.027-.11-.027-.11l.346-4.116.359-4.117s.002-.061.046-.11c.043-.047.106-.042.106-.042h3.324s.297.01.575.04c.176.02.905.25 1.113.351 1.457.721 2.262 2.138 2.119 3.878-.155 1.74-1.202 3.157-2.782 3.877m3.495-7.844c-.761-1.028-1.872-1.704-3.231-2.024a4.916 4.916 0 0 0-.68-.099c-.255-.02-.531-.02-.531-.02l-3.142.01h-1.798v.001a.257.257 0 0 0-.237.232l-.499 5.867-.505 5.866a.209.209 0 0 0 .197.232v.002h1.798l3.14.01s.276 0 .534-.02c.294-.022.596-.076.697-.1 1.414-.32 2.64-.996 3.578-2.023a6.802 6.802 0 0 0 1.73-3.967c.123-1.475-.249-2.883-1.05-3.967M223.238 7.807h-1.134c-.198 0-.37.152-.387.336l-.702 8.206c-.001.02 0 .041.001.064.007.44.38.784.851.784.472 0 .904-.344.986-.785a.422.422 0 0 0 .012-.063l.703-8.206c.015-.184-.133-.336-.33-.336M222.762 6.741c.504 0 .945-.383.986-.856.04-.473-.335-.856-.84-.856-.503 0-.945.383-.985.856-.04.473.335.856.839.856M193.227 21.925c0 .01-.004.02-.01.028a.06.06 0 0 1-.03.018.57.57 0 0 1-.267 0 .047.047 0 0 1-.026-.018.045.045 0 0 1-.006-.028l.189-2.206h-.004l-1.067 2.204a.072.072 0 0 1-.02.024.093.093 0 0 1-.032.016.21.21 0 0 1-.05.01.653.653 0 0 1-.14 0 .237.237 0 0 1-.048-.011.092.092 0 0 1-.029-.017.048.048 0 0 1-.012-.022l-.692-2.204h-.002l-.19 2.206a.05.05 0 0 1-.01.028.06.06 0 0 1-.03.018.59.59 0 0 1-.27 0c-.011-.004-.02-.01-.023-.018a.045.045 0 0 1-.005-.028l.2-2.329c.004-.055.022-.094.053-.118a.165.165 0 0 1 .102-.035h.207c.043 0 .08.004.112.012.031.008.058.02.08.037a.19.19 0 0 1 .055.065.424.424 0 0 1 .035.092l.594 1.822h.01l.893-1.816a.613.613 0 0 1 .057-.1c.02-.028.04-.05.062-.066a.228.228 0 0 1 .073-.035.346.346 0 0 1 .089-.01h.218c.02 0 .04.002.057.008a.102.102 0 0 1 .043.027c.012.013.02.028.027.047a.173.173 0 0 1 .006.07l-.199 2.33zM197.466 20.477a.665.665 0 0 1 .713-.094.52.52 0 0 1 .203.164.613.613 0 0 1 .096.244h-1.225a.769.769 0 0 1 .213-.314m1.11.71c-.045 0-.116.057-.116.057l-.012.019a1.163 1.163 0 0 1-.205.237.763.763 0 0 1-.467.16.544.544 0 0 1-.426-.184.614.614 0 0 1-.146-.449h1.55l.002-.023c.018-.238-.03-.44-.144-.6-.16-.225-.393-.34-.693-.34a.93.93 0 0 0-.729.333 1.02 1.02 0 0 0-.257.594.88.88 0 0 0 .189.636c.146.187.366.282.652.282.129 0 .248-.02.354-.059a.982.982 0 0 0 .293-.171 1.18 1.18 0 0 0 .242-.296l.009-.014a.14.14 0 0 0 .017-.055.114.114 0 0 0-.114-.127M205.041 21.386a.703.703 0 0 1-.265.24.667.667 0 0 1-.667 0 .587.587 0 0 1-.224-.251.645.645 0 0 1-.062-.338.728.728 0 0 1 .12-.337.738.738 0 0 1 .264-.248.698.698 0 0 1 .341-.088.59.59 0 0 1 .458.195c.116.129.167.292.15.485a.735.735 0 0 1-.115.342zm.427-1.103a.118.118 0 0 0-.118-.11.146.146 0 0 0-.137.11h-.006l-.012.138a.78.78 0 0 0-.252-.225.809.809 0 0 0-.39-.093.968.968 0 0 0-.675.272.986.986 0 0 0-.327.655c-.022.26.049.483.211.664a.805.805 0 0 0 .624.273c.142 0 .277-.03.4-.088.108-.05.21-.123.303-.215l-.01.123a.121.121 0 0 0 .121.136.15.15 0 0 0 .145-.136l.129-1.504h-.006zM210.23 21.415a.703.703 0 0 1-.265.24.668.668 0 0 1-.668 0 .589.589 0 0 1-.223-.25.645.645 0 0 1-.063-.339.729.729 0 0 1 .12-.337.74.74 0 0 1 .264-.248.7.7 0 0 1 .342-.088.59.59 0 0 1 .457.195c.116.13.167.292.15.485a.735.735 0 0 1-.114.342zm.432-1.103c-.007-.062-.047-.11-.124-.11-.064 0-.12.028-.142.11l-.012.138a.78.78 0 0 0-.253-.225.809.809 0 0 0-.39-.093.968.968 0 0 0-.675.272.986.986 0 0 0-.327.655.847.847 0 0 0 .211.664.805.805 0 0 0 .625.273c.141 0 .276-.03.4-.088.108-.05.209-.123.302-.215l-.01.123a.122.122 0 0 0 .122.136.15.15 0 0 0 .144-.136l.129-1.504zM217.94 20.261v-.005c-.064-.06-.145-.064-.209-.073-.108-.015-.314.044-.449.222l.015-.178h-.003c-.002-.07-.053-.124-.124-.124-.07 0-.13.055-.144.124h-.003l-.141 1.65h.003c0 .07.052.126.123.126.07 0 .132-.056.145-.126h.003l.041-.482c.026-.296.057-.496.092-.591a.62.62 0 0 1 .174-.273.334.334 0 0 1 .209-.086.28.28 0 0 1 .106.028c.017.01.037.018.06.018.07 0 .133-.058.14-.131a.119.119 0 0 0-.038-.099M196.827 20.147l-.018-.016-.012-.006a.166.166 0 0 0-.02-.009.389.389 0 0 0-.171-.047.484.484 0 0 0-.256.078.848.848 0 0 0-.196.172l.017-.206h-.002a.124.124 0 0 0-.124-.13.153.153 0 0 0-.146.13h-.002l-.146 1.713-.002.003v.004s-.01.126.126.137c.123.01.15-.14.15-.14l.047-.55c.025-.296.056-.495.091-.59a.623.623 0 0 1 .175-.273.334.334 0 0 1 .208-.086c.03 0 .065.01.107.029l.018.007v-.001a.127.127 0 0 0 .044.009c.072 0 .136-.06.142-.134a.123.123 0 0 0-.03-.094M207.277 21.068c.02-.238.01-.415-.03-.53a.542.542 0 0 0-.207-.275.604.604 0 0 0-.35-.102.803.803 0 0 0-.374.09c-.1.052-.194.126-.283.222l.011-.132h-.004a.12.12 0 0 0-.121-.136.15.15 0 0 0-.145.136l-.128 1.504h.003a.12.12 0 0 0 .12.122.15.15 0 0 0 .142-.122h.005l.044-.521a2.32 2.32 0 0 1 .071-.465.68.68 0 0 1 .232-.319.58.58 0 0 1 .36-.128c.114 0 .203.028.268.082a.376.376 0 0 1 .12.245c.01.065.007.198-.01.394l-.059.697h.004v.004a.119.119 0 0 0 .118.133c.072 0 .135-.06.141-.133v-.004h.007l.065-.762zM216.516 20.164a.155.155 0 0 0-.15.141c0 .002.002.004.001.006l-.06.715c-.019.213-.042.353-.07.417a.496.496 0 0 1-.19.225.567.567 0 0 1-.312.086.508.508 0 0 1-.304-.089.385.385 0 0 1-.153-.238 1.693 1.693 0 0 1 .003-.4l.061-.72v-.002a.123.123 0 0 0-.122-.138.152.152 0 0 0-.147.138l-.064.747c-.021.248-.009.437.038.562a.583.583 0 0 0 .238.297.79.79 0 0 0 .427.105.88.88 0 0 0 .445-.105.757.757 0 0 0 .287-.294c.068-.124.112-.308.133-.549l.065-.763a.126.126 0 0 0-.126-.14M220.527 20.538a.673.673 0 0 1 .72-.095.528.528 0 0 1 .205.166.623.623 0 0 1 .097.246h-1.237a.774.774 0 0 1 .215-.317m1.107.732a.14.14 0 0 0-.111.062h-.004c-.076.11-.145.19-.206.24a.768.768 0 0 1-.472.163.55.55 0 0 1-.431-.187.62.62 0 0 1-.148-.454h1.566l.002-.024c.019-.24-.03-.444-.145-.605-.162-.229-.397-.344-.7-.344a.94.94 0 0 0-.737.336 1.03 1.03 0 0 0-.26.6.89.89 0 0 0 .191.643c.148.19.37.285.66.285a.987.987 0 0 0 .654-.233c.088-.076.17-.176.244-.299a.14.14 0 0 0 .014-.051.118.118 0 0 0-.117-.132M219.75 21.024c.02-.237.011-.415-.029-.53a.541.541 0 0 0-.208-.274.603.603 0 0 0-.35-.103.81.81 0 0 0-.374.091 1.04 1.04 0 0 0-.283.222l.011-.13.002-.005V20.274h-.002a.122.122 0 0 0-.122-.119.151.151 0 0 0-.143.119h-.002l-.001.012-.003.009.001.008-.132 1.548a.123.123 0 0 0 .123.138c.074 0 .14-.062.146-.138h.001l.049-.57c.019-.226.043-.383.07-.465a.678.678 0 0 1 .232-.319.58.58 0 0 1 .36-.128c.114 0 .203.027.268.082a.376.376 0 0 1 .12.245c.011.065.008.197-.009.393l-.065.762h.001a.123.123 0 0 0 .123.137c.074 0 .14-.062.146-.137l.07-.827zM223.573 19.97a.119.119 0 0 0-.119-.134.144.144 0 0 0-.127.083h-.001l-.678 1.298-.472-1.299-.003.001a.117.117 0 0 0-.107-.07.147.147 0 0 0-.143.133c0 .01.002.019.004.028l-.006.002.554 1.527-.286.529a.145.145 0 0 0-.024.066.122.122 0 0 0 .121.136.147.147 0 0 0 .137-.105l1.147-2.161-.006-.003c.003-.01.008-.02.009-.032M203.28 20.44a.544.544 0 0 0-.209-.275.603.603 0 0 0-.35-.103c-.13 0-.255.031-.372.091a1.06 1.06 0 0 0-.285.222l.06-.803c.006-.062-.052-.129-.117-.129a.148.148 0 0 0-.138.111l-.198 2.26s-.013.153.12.153c.145 0 .15-.152.15-.152l.05-.59c.02-.226.044-.382.071-.464a.682.682 0 0 1 .232-.319.579.579 0 0 1 .361-.128c.113 0 .202.028.266.082a.391.391 0 0 1 .123.245c.01.065.006.197-.011.393l-.07.79c.013.12.072.143.127.143.118 0 .144-.137.144-.137l.074-.86c.02-.24.011-.417-.028-.53M201.369 20.107h-.264l.047-.524a.125.125 0 0 0-.124-.14.153.153 0 0 0-.148.14l-.044.524h-.306v.002a.129.129 0 0 0-.126.117.105.105 0 0 0 .105.118v.002h.307l-.127 1.475s-.001.146.118.146c.13 0 .15-.128.15-.128l.128-1.493h.263s.1-.01.11-.12c.01-.106-.09-.119-.09-.119M212.552 19.546a.173.173 0 0 0-.12.049.176.176 0 0 0-.058.116.146.146 0 0 0 .038.115.145.145 0 0 0 .112.049.172.172 0 0 0 .12-.049.175.175 0 0 0 .058-.115.147.147 0 0 0-.038-.116.145.145 0 0 0-.112-.049M212.64 20.192a.128.128 0 0 0-.131-.138.152.152 0 0 0-.107.043.152.152 0 0 0-.048.094l-.004.008-.125 1.46a1.248 1.248 0 0 1-.033.217.353.353 0 0 1-.057.121c-.06.077-.135.085-.161.088 0 0-.192.002-.198.012 0 .003-.052.036-.058.106a.11.11 0 0 0 .079.121h.201s.11 0 .191-.037a.466.466 0 0 0 .165-.119.585.585 0 0 0 .106-.196c.026-.078.044-.183.055-.311l.126-1.462-.001-.007M174.526 18.586c3.579-.115 6.417-3.026 6.459-6.64v-3.11h3.938v3.437c-.077 5.59-4.831 10-10.397 10.127v-.001c-5.658-.036-10.448-4.477-10.526-10.126V6.095c-.009-.632.394-1.042 1.001-1.033h15.982v3.773l-12.532.004c-.322 0-.514.2-.514.526v2.517c.042 3.663 2.929 6.666 6.588 6.704z"/><path d="M180.983 5.062H164.98c-.596 0-.99.408-.98 1.033v6.178c.077 5.649 4.867 10.09 10.525 10.126 5.566-.126 10.32-4.536 10.397-10.125V8.836h-3.938v3.11c-.042 3.614-2.88 6.525-6.459 6.64-3.66-.038-6.547-3.04-6.59-6.704V9.365c0-.326.193-.526.515-.526l12.532-.003V5.062zm-.289.295V8.54l-12.243.004c-.48 0-.803.33-.803.82v2.522a7.118 7.118 0 0 0 2.022 4.916 6.835 6.835 0 0 0 4.827 2.079h.038c3.735-.12 6.695-3.165 6.739-6.936V9.132h3.36v3.137c-.035 2.598-1.118 5.049-3.049 6.9a10.527 10.527 0 0 1-7.032 2.935h-.025a10.445 10.445 0 0 1-7.16-2.88c-1.95-1.853-3.043-4.323-3.08-6.951V6.09c-.002-.226.06-.414.184-.541.12-.125.296-.191.51-.191h15.712z"/><path d="M174.526 18.586c3.579-.115 6.417-3.026 6.459-6.64v-3.11h3.938v3.437c-.077 5.59-4.831 10-10.397 10.127v-.001c-5.658-.036-10.448-4.477-10.526-10.126V6.095c-.009-.632.394-1.042 1.001-1.033h15.982v3.773l-12.532.004c-.322 0-.514.2-.514.526v2.517c.042 3.663 2.929 6.666 6.588 6.704z"/></g><path d="M131 1v24" stroke="#FFF" stroke-linecap="square"/></g></svg>